<svg xmlns="http://www.w3.org/2000/svg" viewBox="0 0 48 48" width="48" height="48">
  
  <defs>
    <linearGradient id="rm-tile" x1="0" y1="0" x2="1" y2="1">
      <stop offset="0" stop-color="#2f8ed6"></stop>
      <stop offset="1" stop-color="#004e8c"></stop>
    </linearGradient>
  </defs>
  <rect x="1" y="1" width="46" height="46" rx="11" fill="url(#rm-tile)"></rect>
  <rect x="1" y="1" width="46" height="46" rx="11" fill="none" stroke="rgba(255,255,255,0.18)" stroke-width="1"></rect>
  <path fill-rule="evenodd" fill="#ffffff" d="M18 9 H30 A9 9 0 0 1 39 18 V30 A9 9 0 0 1 30 39 H18 A9 9 0 0 1 9 30 V18 A9 9 0 0 1 18 9 Z M32.5 23.7 a8.8 8.8 0 1 0 0 17.6 a8.8 8.8 0 1 0 0 -17.6 Z"></path>
  <circle cx="32.5" cy="32.5" r="4.6" fill="#ff5a5f"></circle>
</svg>